# xmcd CD database file generated by OrangeCD 5.2
#
# Track frame offsets:
#	150
#	12409
#	24761
#	36376
#	48208
#	62523
#	76028
#	95184
#	107294
#	117696
#	131552
#	144794
#	156446
#	168416
#
# Disc length: 2412 seconds
#
# Revision: 0
# Processed by: cddbd v1.5.1PL2 Copyright (c) Steve Scherf et al.
# Submitted via: OrangeCD 5.2
#
DISCID=ad096a0e
DTITLE=Various Artist - A Briel History Of Country   Open Road
DYEAR=2005
DGENRE=Country
TTITLE0=Hank Williams - Your Cheatin' Heart
TTITLE1=Johnny Cash - I Walk The Line
TTITLE2=Willie Nelson - On The Road Again
TTITLE3=Johnny Paycheck - Take This Job And Shove It
TTITLE4=Waylon Jennings - Are You Ready For The Country
TTITLE5=Merle Haggard - Big City
TTITLE6=Kris Kristofferson - Me And Bobby McGee
TTITLE7=Dolly Parton - Jolene
TTITLE8=Flatt and Scruggs - Down In The Flood
TTITLE9=Lefty Frizzell - Long Black Veil
TTITLE10=Charlie Rich - Behind Closed Doors
TTITLE11=George Jones - She Thinks I Still Care
TTITLE12=Tammy Wynette - Stand By Your Man
TTITLE13=Hank Snow - I'm Moving On
EXTD=
EXTT0=
EXTT1=
EXTT2=
EXTT3=
EXTT4=
EXTT5=
EXTT6=
EXTT7=
EXTT8=
EXTT9=
EXTT10=
EXTT11=
EXTT12=
EXTT13=
PLAYORDER=
